<svg width="16.000000" height="16.000000" viewBox="0 0 16 16" fill="none" xmlns="http://www.w3.org/2000/svg" xmlns:xlink="http://www.w3.org/1999/xlink">
	<defs>
		<clipPath id="clip5661_2607">
			<rect id="log-out" width="16.000000" height="16.000000" fill="white" fill-opacity="0"/>
		</clipPath>
	</defs>
	<rect id="log-out" width="16.000000" height="16.000000" fill="#FFFFFF" fill-opacity="0"/>
	<g clip-path="url(#clip5661_2607)">
		<g opacity="0.000000">
			<path id="Vector" d="M16 0L16 16L0 16L0 0L16 0Z" fill="#FFFFFF" fill-opacity="1.000000" fill-rule="evenodd"/>
		</g>
		<path id="Vector" d="M4.66 4C4.84 4 5.01 3.92 5.13 3.8C5.26 3.67 5.33 3.51 5.33 3.33C5.33 3.15 5.26 2.98 5.13 2.86C5.01 2.73 4.84 2.66 4.66 2.66L3.33 2.66C3.15 2.66 2.98 2.73 2.86 2.86C2.73 2.98 2.66 3.15 2.66 3.33L2.66 12.66C2.66 12.84 2.73 13.01 2.86 13.13C2.98 13.26 3.15 13.33 3.33 13.33L4.66 13.33C4.84 13.33 5.01 13.26 5.13 13.13C5.26 13.01 5.33 12.84 5.33 12.66C5.33 12.48 5.26 12.32 5.13 12.19C5.01 12.07 4.84 12 4.66 12L4 12L4 4L4.66 4Z" fill="#FFFFFF" fill-opacity="1.000000" fill-rule="nonzero"/>
		<path id="Vector" d="M13.88 7.61L12 4.94C11.89 4.8 11.74 4.7 11.56 4.67C11.39 4.64 11.21 4.68 11.07 4.78C11 4.83 10.93 4.9 10.89 4.97C10.84 5.05 10.81 5.13 10.79 5.22C10.78 5.3 10.78 5.39 10.8 5.48C10.82 5.56 10.86 5.64 10.91 5.72L12.06 7.33L6.66 7.33C6.48 7.33 6.32 7.4 6.19 7.52C6.07 7.65 6 7.82 6 8C6 8.17 6.07 8.34 6.19 8.47C6.32 8.59 6.48 8.66 6.66 8.66L12 8.66L10.8 10.26C10.74 10.33 10.7 10.41 10.68 10.5C10.66 10.58 10.66 10.67 10.67 10.76C10.68 10.84 10.71 10.93 10.75 11C10.8 11.08 10.86 11.14 10.93 11.2C11.04 11.28 11.18 11.33 11.33 11.33C11.43 11.33 11.53 11.3 11.63 11.26C11.72 11.21 11.8 11.14 11.86 11.06L13.86 8.4C13.95 8.28 13.99 8.15 14 8C14 7.86 13.96 7.72 13.88 7.61Z" fill="#FFFFFF" fill-opacity="1.000000" fill-rule="nonzero"/>
	</g>
</svg>
